<mxfile host="Electron" agent="Mozilla/5.0 (X11; Linux x86_64) AppleWebKit/537.36 (KHTML, like Gecko) draw.io/26.2.15 Chrome/134.0.6998.205 Electron/35.2.1 Safari/537.36" version="26.2.15" pages="4">
  <diagram name="Plus petite zone" id="ljFAk3aY3HzwBOinie7n">
    <mxGraphModel dx="1464" dy="690" grid="0" gridSize="10" guides="1" tooltips="1" connect="1" arrows="1" fold="1" page="0" pageScale="1" pageWidth="827" pageHeight="1169" math="0" shadow="0">
      <root>
        <mxCell id="0" />
        <mxCell id="1" parent="0" />
        <mxCell id="ixonbWXlBLvx0jIbguy2-5" value="" style="ellipse;whiteSpace=wrap;html=1;aspect=fixed;fillColor=none;" vertex="1" parent="1">
          <mxGeometry x="330" y="383" width="618" height="618" as="geometry" />
        </mxCell>
        <mxCell id="ixonbWXlBLvx0jIbguy2-1" value="DM1" style="sketch=0;outlineConnect=0;fontColor=#232F3E;gradientColor=none;fillColor=#0080F0;strokeColor=none;dashed=0;verticalLabelPosition=bottom;verticalAlign=top;align=center;html=1;fontSize=12;fontStyle=0;aspect=fixed;pointerEvents=1;shape=mxgraph.aws4.sagemaker_model;" vertex="1" parent="1">
          <mxGeometry x="500" y="430" width="78" height="78" as="geometry" />
        </mxCell>
        <mxCell id="ixonbWXlBLvx0jIbguy2-2" value="DM2" style="sketch=0;outlineConnect=0;fontColor=#232F3E;gradientColor=none;fillColor=#0080F0;strokeColor=none;dashed=0;verticalLabelPosition=bottom;verticalAlign=top;align=center;html=1;fontSize=12;fontStyle=0;aspect=fixed;pointerEvents=1;shape=mxgraph.aws4.sagemaker_model;" vertex="1" parent="1">
          <mxGeometry x="830" y="770" width="78" height="78" as="geometry" />
        </mxCell>
        <mxCell id="ixonbWXlBLvx0jIbguy2-3" value="DM3" style="sketch=0;outlineConnect=0;fontColor=#232F3E;gradientColor=none;fillColor=#0080F0;strokeColor=none;dashed=0;verticalLabelPosition=bottom;verticalAlign=top;align=center;html=1;fontSize=12;fontStyle=0;aspect=fixed;pointerEvents=1;shape=mxgraph.aws4.sagemaker_model;" vertex="1" parent="1">
          <mxGeometry x="400" y="560" width="78" height="78" as="geometry" />
        </mxCell>
        <mxCell id="ixonbWXlBLvx0jIbguy2-4" value="Group" style="sketch=0;outlineConnect=0;fontColor=#232F3E;gradientColor=none;fillColor=#01A88D;strokeColor=none;dashed=0;verticalLabelPosition=bottom;verticalAlign=top;align=center;html=1;fontSize=12;fontStyle=0;aspect=fixed;pointerEvents=1;shape=mxgraph.aws4.sagemaker_model;" vertex="1" parent="1">
          <mxGeometry x="600" y="653" width="78" height="78" as="geometry" />
        </mxCell>
        <mxCell id="Jm4XFv67XxvDK01NT2Q3-1" value="&lt;div&gt;&lt;b&gt;&lt;u&gt;&lt;font style=&quot;font-size: 15px;&quot;&gt;Points négatifs :&lt;/font&gt;&lt;/u&gt;&lt;/b&gt;&lt;/div&gt;&lt;font style=&quot;font-size: 15px;&quot;&gt;- Ne marche qu&#39;avec MILP&lt;/font&gt;&lt;div&gt;&lt;font style=&quot;font-size: 15px;&quot;&gt;- Ordre lexicographique commun à tous les décideurs&lt;/font&gt;&lt;/div&gt;&lt;div&gt;&lt;font style=&quot;font-size: 15px;&quot;&gt;- Taille du PL linéaire en nombre de DM&lt;/font&gt;&lt;/div&gt;" style="text;html=1;align=left;verticalAlign=middle;whiteSpace=wrap;rounded=0;" vertex="1" parent="1">
          <mxGeometry x="987" y="572" width="362" height="77" as="geometry" />
        </mxCell>
        <mxCell id="Jm4XFv67XxvDK01NT2Q3-2" value="&lt;div style=&quot;&quot;&gt;&lt;b style=&quot;background-color: transparent; color: light-dark(rgb(0, 0, 0), rgb(255, 255, 255));&quot;&gt;&lt;u&gt;&lt;font style=&quot;font-size: 15px;&quot;&gt;Points positifs :&lt;/font&gt;&lt;/u&gt;&lt;/b&gt;&lt;/div&gt;&lt;div style=&quot;&quot;&gt;&lt;font style=&quot;font-size: 15px;&quot;&gt;- Modèle individuel pour chaque DM trouvé&lt;/font&gt;&lt;/div&gt;&lt;div&gt;&lt;font style=&quot;font-size: 15px;&quot;&gt;- Possibilité de ne déterminer cette &quot;zone&quot; qu&#39;une seule fois au début&lt;/font&gt;&lt;/div&gt;" style="text;html=1;align=left;verticalAlign=middle;resizable=1;points=[];autosize=0;strokeColor=none;fillColor=none;whiteSpace=wrap;" vertex="1" parent="1">
          <mxGeometry x="995" y="683" width="294" height="55" as="geometry" />
        </mxCell>
      </root>
    </mxGraphModel>
  </diagram>
  <diagram name="Chemins" id="mR-h2wxYMTjcyhIy-GTN">
    <mxGraphModel dx="1425" dy="830" grid="0" gridSize="10" guides="1" tooltips="1" connect="1" arrows="1" fold="1" page="0" pageScale="1" pageWidth="827" pageHeight="1169" math="0" shadow="0">
      <root>
        <mxCell id="UCIQSmNqVuQFFXpV3gD9-0" />
        <mxCell id="UCIQSmNqVuQFFXpV3gD9-1" parent="UCIQSmNqVuQFFXpV3gD9-0" />
        <mxCell id="UCIQSmNqVuQFFXpV3gD9-2" value="" style="ellipse;whiteSpace=wrap;html=1;aspect=fixed;fillColor=none;" vertex="1" parent="UCIQSmNqVuQFFXpV3gD9-1">
          <mxGeometry x="330" y="383" width="618" height="618" as="geometry" />
        </mxCell>
        <mxCell id="UCIQSmNqVuQFFXpV3gD9-3" value="DM1" style="sketch=0;outlineConnect=0;fontColor=#232F3E;gradientColor=none;fillColor=#0080F0;strokeColor=none;dashed=0;verticalLabelPosition=bottom;verticalAlign=top;align=center;html=1;fontSize=12;fontStyle=0;aspect=fixed;pointerEvents=1;shape=mxgraph.aws4.sagemaker_model;" vertex="1" parent="UCIQSmNqVuQFFXpV3gD9-1">
          <mxGeometry x="500" y="430" width="78" height="78" as="geometry" />
        </mxCell>
        <mxCell id="UCIQSmNqVuQFFXpV3gD9-4" value="DM2" style="sketch=0;outlineConnect=0;fontColor=#232F3E;gradientColor=none;fillColor=#0080F0;strokeColor=none;dashed=0;verticalLabelPosition=bottom;verticalAlign=top;align=center;html=1;fontSize=12;fontStyle=0;aspect=fixed;pointerEvents=1;shape=mxgraph.aws4.sagemaker_model;" vertex="1" parent="UCIQSmNqVuQFFXpV3gD9-1">
          <mxGeometry x="830" y="770" width="78" height="78" as="geometry" />
        </mxCell>
        <mxCell id="UCIQSmNqVuQFFXpV3gD9-5" value="DM3" style="sketch=0;outlineConnect=0;fontColor=#232F3E;gradientColor=none;fillColor=#0080F0;strokeColor=none;dashed=0;verticalLabelPosition=bottom;verticalAlign=top;align=center;html=1;fontSize=12;fontStyle=0;aspect=fixed;pointerEvents=1;shape=mxgraph.aws4.sagemaker_model;" vertex="1" parent="UCIQSmNqVuQFFXpV3gD9-1">
          <mxGeometry x="400" y="560" width="78" height="78" as="geometry" />
        </mxCell>
        <mxCell id="UCIQSmNqVuQFFXpV3gD9-6" value="Group" style="sketch=0;outlineConnect=0;fontColor=#232F3E;gradientColor=none;fillColor=#01A88D;strokeColor=none;dashed=0;verticalLabelPosition=bottom;verticalAlign=top;align=center;html=1;fontSize=12;fontStyle=0;aspect=fixed;pointerEvents=1;shape=mxgraph.aws4.sagemaker_model;" vertex="1" parent="UCIQSmNqVuQFFXpV3gD9-1">
          <mxGeometry x="600" y="653" width="78" height="78" as="geometry" />
        </mxCell>
        <mxCell id="rqxJrYhWAvJrl_kbZ7hq-1" value="" style="curved=1;endArrow=classic;html=1;rounded=0;exitX=0.437;exitY=0.157;exitDx=0;exitDy=0;exitPerimeter=0;entryX=0.55;entryY=0.416;entryDx=0;entryDy=0;entryPerimeter=0;" edge="1" parent="UCIQSmNqVuQFFXpV3gD9-1" source="UCIQSmNqVuQFFXpV3gD9-2" target="UCIQSmNqVuQFFXpV3gD9-2">
          <mxGeometry width="50" height="50" relative="1" as="geometry">
            <mxPoint x="200" y="820" as="sourcePoint" />
            <mxPoint x="250" y="450" as="targetPoint" />
            <Array as="points">
              <mxPoint x="710" y="490" />
              <mxPoint x="610" y="600" />
              <mxPoint x="750" y="570" />
            </Array>
          </mxGeometry>
        </mxCell>
        <mxCell id="z7pTuHy9xT76s1kll7FW-0" value="" style="curved=1;endArrow=classic;html=1;rounded=0;entryX=0.43;entryY=0.443;entryDx=0;entryDy=0;entryPerimeter=0;exitX=0.254;exitY=0.388;exitDx=0;exitDy=0;exitPerimeter=0;" edge="1" parent="UCIQSmNqVuQFFXpV3gD9-1" source="UCIQSmNqVuQFFXpV3gD9-2" target="UCIQSmNqVuQFFXpV3gD9-2">
          <mxGeometry width="50" height="50" relative="1" as="geometry">
            <mxPoint x="649" y="697" as="sourcePoint" />
            <mxPoint x="699" y="647" as="targetPoint" />
            <Array as="points">
              <mxPoint x="558" y="617" />
              <mxPoint x="489" y="680" />
              <mxPoint x="574" y="629" />
            </Array>
          </mxGeometry>
        </mxCell>
        <mxCell id="z7pTuHy9xT76s1kll7FW-2" value="" style="curved=1;endArrow=classic;html=1;rounded=0;exitX=0.819;exitY=0.617;exitDx=0;exitDy=0;exitPerimeter=0;entryX=0.592;entryY=0.549;entryDx=0;entryDy=0;entryPerimeter=0;" edge="1" parent="UCIQSmNqVuQFFXpV3gD9-1" source="UCIQSmNqVuQFFXpV3gD9-2" target="UCIQSmNqVuQFFXpV3gD9-2">
          <mxGeometry width="50" height="50" relative="1" as="geometry">
            <mxPoint x="649" y="697" as="sourcePoint" />
            <mxPoint x="699" y="647" as="targetPoint" />
            <Array as="points">
              <mxPoint x="805" y="692" />
              <mxPoint x="754" y="807" />
            </Array>
          </mxGeometry>
        </mxCell>
      </root>
    </mxGraphModel>
  </diagram>
  <diagram name="Refus" id="Qe3eo4nQ5BChmgihgKPM">
    <mxGraphModel dx="1181" dy="687" grid="0" gridSize="10" guides="1" tooltips="1" connect="1" arrows="1" fold="1" page="0" pageScale="1" pageWidth="827" pageHeight="1169" math="0" shadow="0">
      <root>
        <mxCell id="FlE1VKPk_Dau-8CE6DmV-0" />
        <mxCell id="FlE1VKPk_Dau-8CE6DmV-1" parent="FlE1VKPk_Dau-8CE6DmV-0" />
        <mxCell id="MnQDGdx6Fkr5yvsx0Kdk-0" value="" style="ellipse;whiteSpace=wrap;html=1;fillColor=#f8cecc;strokeColor=#b85450;fillStyle=hatch;" vertex="1" parent="FlE1VKPk_Dau-8CE6DmV-1">
          <mxGeometry x="331" y="545" width="414" height="440" as="geometry" />
        </mxCell>
        <mxCell id="FlE1VKPk_Dau-8CE6DmV-2" value="" style="ellipse;whiteSpace=wrap;html=1;aspect=fixed;fillColor=none;" vertex="1" parent="FlE1VKPk_Dau-8CE6DmV-1">
          <mxGeometry x="330" y="383" width="618" height="618" as="geometry" />
        </mxCell>
        <mxCell id="FlE1VKPk_Dau-8CE6DmV-3" value="DM1" style="sketch=0;outlineConnect=0;fontColor=#232F3E;gradientColor=none;fillColor=#0080F0;strokeColor=none;dashed=0;verticalLabelPosition=bottom;verticalAlign=top;align=center;html=1;fontSize=12;fontStyle=0;aspect=fixed;pointerEvents=1;shape=mxgraph.aws4.sagemaker_model;" vertex="1" parent="FlE1VKPk_Dau-8CE6DmV-1">
          <mxGeometry x="500" y="430" width="78" height="78" as="geometry" />
        </mxCell>
        <mxCell id="FlE1VKPk_Dau-8CE6DmV-4" value="DM2" style="sketch=0;outlineConnect=0;fontColor=#232F3E;gradientColor=none;fillColor=#0080F0;strokeColor=none;dashed=0;verticalLabelPosition=bottom;verticalAlign=top;align=center;html=1;fontSize=12;fontStyle=0;aspect=fixed;pointerEvents=1;shape=mxgraph.aws4.sagemaker_model;" vertex="1" parent="FlE1VKPk_Dau-8CE6DmV-1">
          <mxGeometry x="830" y="770" width="78" height="78" as="geometry" />
        </mxCell>
        <mxCell id="FlE1VKPk_Dau-8CE6DmV-5" value="DM3" style="sketch=0;outlineConnect=0;fontColor=#232F3E;gradientColor=none;fillColor=#0080F0;strokeColor=none;dashed=0;verticalLabelPosition=bottom;verticalAlign=top;align=center;html=1;fontSize=12;fontStyle=0;aspect=fixed;pointerEvents=1;shape=mxgraph.aws4.sagemaker_model;" vertex="1" parent="FlE1VKPk_Dau-8CE6DmV-1">
          <mxGeometry x="400" y="560" width="78" height="78" as="geometry" />
        </mxCell>
        <mxCell id="FlE1VKPk_Dau-8CE6DmV-6" value="Group" style="sketch=0;outlineConnect=0;fontColor=#232F3E;gradientColor=none;fillColor=#01A88D;strokeColor=none;dashed=0;verticalLabelPosition=bottom;verticalAlign=top;align=center;html=1;fontSize=12;fontStyle=0;aspect=fixed;pointerEvents=1;shape=mxgraph.aws4.sagemaker_model;" vertex="1" parent="FlE1VKPk_Dau-8CE6DmV-1">
          <mxGeometry x="600" y="653" width="78" height="78" as="geometry" />
        </mxCell>
        <mxCell id="FlE1VKPk_Dau-8CE6DmV-7" value="" style="curved=1;endArrow=classic;html=1;rounded=0;exitX=0.437;exitY=0.157;exitDx=0;exitDy=0;exitPerimeter=0;entryX=0.55;entryY=0.416;entryDx=0;entryDy=0;entryPerimeter=0;" edge="1" parent="FlE1VKPk_Dau-8CE6DmV-1" source="FlE1VKPk_Dau-8CE6DmV-2" target="FlE1VKPk_Dau-8CE6DmV-2">
          <mxGeometry width="50" height="50" relative="1" as="geometry">
            <mxPoint x="200" y="820" as="sourcePoint" />
            <mxPoint x="250" y="450" as="targetPoint" />
            <Array as="points">
              <mxPoint x="710" y="490" />
              <mxPoint x="610" y="600" />
              <mxPoint x="750" y="570" />
            </Array>
          </mxGeometry>
        </mxCell>
        <mxCell id="FlE1VKPk_Dau-8CE6DmV-8" value="" style="curved=1;endArrow=classic;html=1;rounded=0;entryX=0.43;entryY=0.443;entryDx=0;entryDy=0;entryPerimeter=0;exitX=0.254;exitY=0.388;exitDx=0;exitDy=0;exitPerimeter=0;" edge="1" parent="FlE1VKPk_Dau-8CE6DmV-1" source="FlE1VKPk_Dau-8CE6DmV-2" target="FlE1VKPk_Dau-8CE6DmV-2">
          <mxGeometry width="50" height="50" relative="1" as="geometry">
            <mxPoint x="649" y="697" as="sourcePoint" />
            <mxPoint x="699" y="647" as="targetPoint" />
            <Array as="points">
              <mxPoint x="558" y="617" />
              <mxPoint x="489" y="680" />
              <mxPoint x="574" y="629" />
            </Array>
          </mxGeometry>
        </mxCell>
        <mxCell id="FlE1VKPk_Dau-8CE6DmV-9" value="" style="curved=1;endArrow=classic;html=1;rounded=0;exitX=0.819;exitY=0.617;exitDx=0;exitDy=0;exitPerimeter=0;entryX=0.592;entryY=0.549;entryDx=0;entryDy=0;entryPerimeter=0;" edge="1" parent="FlE1VKPk_Dau-8CE6DmV-1" source="FlE1VKPk_Dau-8CE6DmV-2" target="FlE1VKPk_Dau-8CE6DmV-2">
          <mxGeometry width="50" height="50" relative="1" as="geometry">
            <mxPoint x="649" y="697" as="sourcePoint" />
            <mxPoint x="699" y="647" as="targetPoint" />
            <Array as="points">
              <mxPoint x="805" y="692" />
              <mxPoint x="754" y="807" />
            </Array>
          </mxGeometry>
        </mxCell>
      </root>
    </mxGraphModel>
  </diagram>
  <diagram name="Rebelote" id="VsD8WDTxz06qzxEkkCK5">
    <mxGraphModel dx="1425" dy="830" grid="0" gridSize="10" guides="1" tooltips="1" connect="1" arrows="1" fold="1" page="0" pageScale="1" pageWidth="827" pageHeight="1169" math="0" shadow="0">
      <root>
        <mxCell id="CvGVm520Kywg3hwWzOSU-0" />
        <mxCell id="CvGVm520Kywg3hwWzOSU-1" parent="CvGVm520Kywg3hwWzOSU-0" />
        <mxCell id="CvGVm520Kywg3hwWzOSU-2" value="" style="ellipse;whiteSpace=wrap;html=1;fillColor=#f8cecc;strokeColor=#b85450;fillStyle=hatch;" vertex="1" parent="CvGVm520Kywg3hwWzOSU-1">
          <mxGeometry x="331" y="545" width="414" height="440" as="geometry" />
        </mxCell>
        <mxCell id="CvGVm520Kywg3hwWzOSU-3" value="" style="ellipse;whiteSpace=wrap;html=1;aspect=fixed;fillColor=none;" vertex="1" parent="CvGVm520Kywg3hwWzOSU-1">
          <mxGeometry x="330" y="383" width="618" height="618" as="geometry" />
        </mxCell>
        <mxCell id="CvGVm520Kywg3hwWzOSU-4" value="DM1" style="sketch=0;outlineConnect=0;fontColor=#232F3E;gradientColor=none;fillColor=#0080F0;strokeColor=none;dashed=0;verticalLabelPosition=bottom;verticalAlign=top;align=center;html=1;fontSize=12;fontStyle=0;aspect=fixed;pointerEvents=1;shape=mxgraph.aws4.sagemaker_model;" vertex="1" parent="CvGVm520Kywg3hwWzOSU-1">
          <mxGeometry x="565" y="425" width="78" height="78" as="geometry" />
        </mxCell>
        <mxCell id="CvGVm520Kywg3hwWzOSU-5" value="DM2" style="sketch=0;outlineConnect=0;fontColor=#232F3E;gradientColor=none;fillColor=#0080F0;strokeColor=none;dashed=0;verticalLabelPosition=bottom;verticalAlign=top;align=center;html=1;fontSize=12;fontStyle=0;aspect=fixed;pointerEvents=1;shape=mxgraph.aws4.sagemaker_model;" vertex="1" parent="CvGVm520Kywg3hwWzOSU-1">
          <mxGeometry x="748" y="732" width="78" height="78" as="geometry" />
        </mxCell>
        <mxCell id="CvGVm520Kywg3hwWzOSU-6" value="DM3" style="sketch=0;outlineConnect=0;fontColor=#232F3E;gradientColor=none;fillColor=#0080F0;strokeColor=none;dashed=0;verticalLabelPosition=bottom;verticalAlign=top;align=center;html=1;fontSize=12;fontStyle=0;aspect=fixed;pointerEvents=1;shape=mxgraph.aws4.sagemaker_model;" vertex="1" parent="CvGVm520Kywg3hwWzOSU-1">
          <mxGeometry x="501" y="636" width="78" height="78" as="geometry" />
        </mxCell>
        <mxCell id="CvGVm520Kywg3hwWzOSU-7" value="Group" style="sketch=0;outlineConnect=0;fontColor=#232F3E;gradientColor=none;fillColor=#01A88D;strokeColor=none;dashed=0;verticalLabelPosition=bottom;verticalAlign=top;align=center;html=1;fontSize=12;fontStyle=0;aspect=fixed;pointerEvents=1;shape=mxgraph.aws4.sagemaker_model;" vertex="1" parent="CvGVm520Kywg3hwWzOSU-1">
          <mxGeometry x="718" y="529" width="78" height="78" as="geometry" />
        </mxCell>
        <mxCell id="CvGVm520Kywg3hwWzOSU-8" value="" style="curved=1;endArrow=classic;html=1;rounded=0;exitX=0.532;exitY=0.097;exitDx=0;exitDy=0;exitPerimeter=0;entryX=0.694;entryY=0.201;entryDx=0;entryDy=0;entryPerimeter=0;" edge="1" parent="CvGVm520Kywg3hwWzOSU-1" source="CvGVm520Kywg3hwWzOSU-3" target="CvGVm520Kywg3hwWzOSU-3">
          <mxGeometry width="50" height="50" relative="1" as="geometry">
            <mxPoint x="200" y="820" as="sourcePoint" />
            <mxPoint x="250" y="450" as="targetPoint" />
            <Array as="points">
              <mxPoint x="698" y="461" />
              <mxPoint x="690" y="515" />
              <mxPoint x="759" y="450" />
            </Array>
          </mxGeometry>
        </mxCell>
        <mxCell id="CvGVm520Kywg3hwWzOSU-9" value="" style="curved=1;endArrow=classic;html=1;rounded=0;entryX=0.607;entryY=0.285;entryDx=0;entryDy=0;entryPerimeter=0;exitX=0.337;exitY=0.392;exitDx=0;exitDy=0;exitPerimeter=0;" edge="1" parent="CvGVm520Kywg3hwWzOSU-1" source="CvGVm520Kywg3hwWzOSU-3" target="CvGVm520Kywg3hwWzOSU-3">
          <mxGeometry width="50" height="50" relative="1" as="geometry">
            <mxPoint x="649" y="697" as="sourcePoint" />
            <mxPoint x="699" y="647" as="targetPoint" />
            <Array as="points">
              <mxPoint x="552" y="574" />
              <mxPoint x="666" y="658" />
              <mxPoint x="638" y="558" />
            </Array>
          </mxGeometry>
        </mxCell>
        <mxCell id="CvGVm520Kywg3hwWzOSU-10" value="" style="curved=1;endArrow=classic;html=1;rounded=0;exitX=0.749;exitY=0.545;exitDx=0;exitDy=0;exitPerimeter=0;entryX=0.741;entryY=0.387;entryDx=0;entryDy=0;entryPerimeter=0;" edge="1" parent="CvGVm520Kywg3hwWzOSU-1" source="CvGVm520Kywg3hwWzOSU-3" target="CvGVm520Kywg3hwWzOSU-3">
          <mxGeometry width="50" height="50" relative="1" as="geometry">
            <mxPoint x="649" y="697" as="sourcePoint" />
            <mxPoint x="699" y="647" as="targetPoint" />
            <Array as="points">
              <mxPoint x="805" y="692" />
              <mxPoint x="716" y="674" />
              <mxPoint x="835" y="659" />
            </Array>
          </mxGeometry>
        </mxCell>
        <mxCell id="XS39nEYhwMmPbpKuMg9U-0" value="&lt;font style=&quot;font-size: 15px;&quot;&gt;Converge car réduit la zone petit à petit&lt;/font&gt;" style="text;html=1;align=center;verticalAlign=middle;whiteSpace=wrap;rounded=0;" vertex="1" parent="CvGVm520Kywg3hwWzOSU-1">
          <mxGeometry x="973" y="662" width="144" height="43" as="geometry" />
        </mxCell>
      </root>
    </mxGraphModel>
  </diagram>
</mxfile>
